<svg width="12" height="12" viewBox="0 0 12 12" fill="none" xmlns="http://www.w3.org/2000/svg">
<path d="M1.20956 1.2L5.13022 6.0606C5.30184 6.27349 5.39527 6.53801 5.39515 6.8106V10.8L6.60485 9.9V6.81C6.60486 6.53761 6.69829 6.27333 6.86978 6.0606L10.7904 1.2H1.21016H1.20956ZM1.20956 0H10.7904C11.0183 2.82004e-05 11.2416 0.0639142 11.4345 0.184299C11.6274 0.304685 11.7821 0.476672 11.8807 0.680452C11.9794 0.884232 12.018 1.11152 11.9922 1.33612C11.9663 1.56073 11.8771 1.77353 11.7346 1.95L7.81456 6.81V9.9C7.81456 10.0863 7.77084 10.27 7.68685 10.4367C7.60286 10.6033 7.48092 10.7482 7.33068 10.86L6.12097 11.76C5.94124 11.8937 5.72753 11.9751 5.50378 11.9952C5.28003 12.0152 5.05509 11.973 4.85415 11.8733C4.65321 11.7737 4.48422 11.6204 4.36611 11.4309C4.248 11.2413 4.18544 11.0229 4.18544 10.8V6.81L0.265381 1.95C0.122946 1.77353 0.0336606 1.56073 0.00780898 1.33612C-0.0180426 1.11152 0.020591 0.884232 0.11926 0.680452C0.217929 0.476672 0.37262 0.304685 0.565514 0.184299C0.758409 0.0639142 0.981662 2.82004e-05 1.20956 0V0Z" fill="white"/>
</svg>
